<?xml version="1.0" standalone="no"?>
<!DOCTYPE svg PUBLIC "-//W3C//DTD SVG 20010904//EN"
 "http://www.w3.org/TR/2001/REC-SVG-20010904/DTD/svg10.dtd">
<svg version="1.0" xmlns="http://www.w3.org/2000/svg"
 width="1058.000000pt" height="552.000000pt" viewBox="0 0 1058.000000 552.000000"
 preserveAspectRatio="xMidYMid meet">
<metadata>
Created by potrace 1.16, written by Peter Selinger 2001-2019
</metadata>
<g transform="translate(0.000000,552.000000) scale(0.100000,-0.100000)"
fill="#000000" stroke="none">
<path d="M0 5420 l0 -100 1810 0 1810 0 0 -90 0 -90 2500 0 2500 0 0 90 0 90
980 0 980 0 0 100 0 100 -5290 0 -5290 0 0 -100z"/>
<path d="M9410 5222 c-20 -7 -41 -63 -35 -92 9 -43 40 -64 92 -65 24 -1 48 -6
51 -12 4 -5 17 -15 30 -22 19 -10 23 -9 29 4 3 10 -2 24 -12 33 -13 13 -16 13
-9 2 7 -13 6 -13 -9 -1 -17 14 -24 26 -9 17 4 -2 7 14 7 37 -2 61 -4 71 -12
64 -7 -8 -44 23 -39 32 4 6 -66 9 -84 3z"/>
<path d="M1721 5196 l-22 -24 28 -20 28 -21 -27 -28 -28 -29 22 -22 22 -22 28
27 28 27 28 -27 28 -27 22 22 22 22 -27 28 -27 28 24 25 c23 24 23 25 5 45
l-18 20 -29 -27 -28 -27 -28 27 -28 27 -23 -24z"/>
<path d="M8900 5130 l0 -80 100 0 100 0 0 80 0 80 -100 0 -100 0 0 -80z"/>
<path d="M82 4773 l2 -78 3 73 4 72 794 0 794 0 4 -72 3 -73 2 78 2 77 -805 0
-805 0 2 -77z"/>
<path d="M3010 4475 c-52 -30 -96 -58 -97 -62 -1 -5 43 -34 97 -65 l100 -57 0
45 0 44 405 0 405 0 0 30 0 30 -404 0 -405 0 -3 44 -3 45 -95 -54z"/>
<path d="M3003 4133 c-51 -30 -91 -58 -88 -63 2 -4 46 -31 96 -60 107 -62 108
-53 -27 -129 -90 -51 -94 -40 44 -121 l82 -48 0 44 0 44 405 0 405 0 0 30 0
30 -127 1 c-71 1 -253 1 -405 -1 l-278 -2 0 91 0 91 405 0 405 0 0 30 0 30
-127 1 c-71 0 -253 0 -405 -1 l-278 -2 0 46 c0 25 -3 46 -7 45 -5 -1 -50 -26
-100 -56z"/>
<path d="M80 3045 l0 -285 305 0 305 0 0 -25 0 -25 200 0 200 0 0 -56 c0 -41
3 -55 13 -52 19 4 277 152 277 158 0 6 -258 154 -277 158 -10 3 -13 -12 -13
-57 l0 -61 -60 0 -60 0 0 265 0 265 -445 0 -445 0 0 -285z m880 15 l0 -260
-135 0 c-113 0 -135 -2 -135 -15 0 -13 -40 -15 -300 -15 l-300 0 0 275 0 275
435 0 435 0 0 -260z"/>
<path d="M8880 3195 l0 -95 -50 0 -50 0 0 -45 c0 -25 -4 -45 -9 -45 -4 0 -40
13 -80 29 l-71 30 0 -59 0 -59 72 25 c39 13 75 24 80 24 4 0 8 -20 8 -45 l0
-45 50 0 50 0 0 -65 0 -65 -50 0 -50 0 0 -45 c0 -25 -4 -45 -9 -45 -4 0 -40
13 -80 29 l-71 30 0 -59 0 -59 72 25 c39 13 75 24 80 24 4 0 8 -20 8 -45 l0
-45 50 0 50 0 0 -95 0 -95 645 0 645 0 0 445 0 445 -645 0 -645 0 0 -95z
m1280 -350 l0 -435 -635 0 -635 0 0 435 0 435 635 0 635 0 0 -435z m-1280 160
l0 -85 -45 0 -45 0 0 85 0 85 45 0 45 0 0 -85z m0 -320 l0 -85 -45 0 -45 0 0
85 0 85 45 0 45 0 0 -85z"/>
<path d="M3252 2678 c-37 -46 -15 -158 32 -158 40 0 56 25 56 85 0 35 -5 59
-16 69 -19 19 -58 21 -72 4z"/>
<path d="M3380 2671 c-16 -31 -12 -117 6 -135 19 -19 58 -21 72 -3 20 24 24
82 8 120 -12 31 -20 37 -45 37 -20 0 -34 -7 -41 -19z"/>
<path d="M3516 2668 c-9 -12 -16 -41 -16 -63 0 -50 23 -85 55 -85 32 0 55 35
55 85 0 50 -23 85 -55 85 -13 0 -31 -10 -39 -22z"/>
<path d="M351 556 c-8 -10 -10 -30 -6 -59 5 -29 3 -47 -4 -51 -17 -11 -13 -53
5 -60 33 -13 73 -6 88 16 21 29 4 58 -34 58 -34 0 -50 18 -23 26 36 11 48 22
52 45 1 13 8 27 15 31 6 4 -10 8 -35 8 -28 0 -51 -6 -58 -14z"/>
</g>
</svg>
