<?xml version="1.0" standalone="no"?>
<!DOCTYPE svg PUBLIC "-//W3C//DTD SVG 20010904//EN"
 "http://www.w3.org/TR/2001/REC-SVG-20010904/DTD/svg10.dtd">
<svg version="1.0" xmlns="http://www.w3.org/2000/svg"
 width="1033.000000pt" height="445.000000pt" viewBox="0 0 1033.000000 445.000000"
 preserveAspectRatio="xMidYMid meet">
<metadata>
Created by potrace 1.16, written by Peter Selinger 2001-2019
</metadata>
<g transform="translate(0.000000,445.000000) scale(0.100000,-0.100000)"
fill="#000000" stroke="none">
<path d="M0 4365 l0 -85 5165 0 5165 0 0 85 0 85 -3956 0 -3956 0 4 -55 c2
-34 -1 -54 -7 -52 -5 2 -11 27 -13 55 l-3 52 -205 0 -206 0 4 -55 c2 -34 -1
-54 -7 -52 -5 2 -11 27 -13 55 l-3 52 -494 0 c-385 0 -495 -3 -499 -12 -5 -10
-7 -10 -12 0 -4 9 -47 12 -164 12 -117 0 -160 -3 -164 -12 -5 -10 -7 -10 -12
0 -13 27 -24 9 -24 -38 0 -38 -4 -52 -16 -57 -26 -10 -49 11 -49 43 0 22 5 30
23 32 12 2 22 10 22 18 0 12 -31 14 -186 14 l-186 0 4 -55 c2 -34 -1 -54 -7
-52 -5 2 -11 27 -13 55 -3 50 -14 66 -26 40 -5 -10 -7 -10 -12 0 -4 8 -30 12
-80 12 l-74 0 0 -85z"/>
<path d="M9410 4182 c-20 -7 -41 -63 -35 -92 9 -43 40 -64 92 -65 24 -1 48 -6
51 -12 4 -5 17 -15 30 -22 19 -10 23 -9 29 4 3 10 -2 24 -12 33 -13 13 -16 13
-9 2 7 -13 6 -13 -9 -1 -17 14 -24 26 -9 17 4 -2 7 14 7 37 -2 61 -4 71 -12
64 -7 -8 -44 23 -39 32 4 6 -66 9 -84 3z"/>
<path d="M1721 4156 l-22 -24 28 -20 28 -21 -27 -28 -28 -29 22 -22 22 -22 28
27 28 27 28 -27 28 -27 22 22 22 22 -27 28 -27 28 24 25 c23 24 23 25 5 45
l-18 20 -29 -27 -28 -27 -28 27 -28 27 -23 -24z"/>
<path d="M8900 4090 l0 -80 100 0 100 0 0 80 0 80 -100 0 -100 0 0 -80z"/>
<path d="M3760 3245 l0 -605 565 0 565 0 0 605 0 605 -565 0 -565 0 0 -605z
m1120 0 l0 -595 -555 0 -555 0 0 595 0 595 555 0 555 0 0 -595z"/>
<path d="M5040 3345 l0 -505 -40 0 -40 0 0 -50 0 -50 1255 0 1254 0 3 -67 3
-68 166 95 165 95 -168 97 -168 97 0 -75 c0 -43 -4 -74 -10 -74 -7 0 -10 175
-10 505 l0 505 -565 0 -565 0 0 -505 0 -505 -115 0 -115 0 0 505 0 505 -525 0
-525 0 0 -505z m1040 -5 l0 -500 -515 0 -515 0 0 500 0 500 515 0 515 0 0
-500z m1360 0 l0 -500 -555 0 -555 0 0 500 0 500 555 0 555 0 0 -500z"/>
<path d="M80 3525 l0 -285 583 2 582 3 -577 2 -578 3 0 275 0 275 795 0 795 0
3 -252 2 -253 3 258 2 257 -805 0 -805 0 0 -285z"/>
<path d="M881 2752 c-5 -2 6 -29 25 -60 19 -31 34 -60 34 -63 0 -4 -88 -57
-195 -119 -107 -61 -195 -114 -195 -116 0 -6 25 -52 38 -72 7 -10 55 14 200
98 105 60 195 110 201 110 5 0 24 -25 41 -56 18 -30 34 -54 35 -52 2 2 42 71
90 153 48 83 91 154 96 159 5 6 9 13 9 16 0 6 -362 8 -379 2z"/>
<path d="M3760 2195 l0 -215 -50 0 c-49 0 -50 -1 -50 -30 l0 -30 -172 2 -173
3 -3 67 -3 67 -149 -87 c-83 -47 -150 -88 -150 -91 1 -5 268 -161 291 -169 5
-2 9 24 9 57 l0 61 175 0 c168 0 175 -1 175 -20 0 -17 7 -20 50 -20 l50 0 0
-215 0 -215 565 0 565 0 0 215 0 215 50 0 50 0 0 45 0 45 125 0 125 0 0 -25
c0 -14 4 -25 8 -25 5 0 42 11 82 25 40 14 77 25 82 25 4 0 8 -20 8 -45 l0 -45
50 0 50 0 0 -55 0 -55 285 0 285 0 0 55 0 55 50 0 50 0 0 45 0 45 165 0 165 0
0 -25 c0 -31 0 -31 90 0 40 14 77 25 82 25 4 0 8 -20 8 -45 l0 -45 50 0 50 0
0 -55 0 -55 565 0 565 0 0 55 0 55 50 0 50 0 0 45 0 45 145 0 145 0 0 40 0 40
140 0 140 0 0 -25 c0 -14 4 -25 8 -25 5 0 42 11 82 25 40 14 77 25 82 25 4 0
8 -20 8 -45 l0 -45 50 0 50 0 0 -65 0 -65 -50 0 -50 0 0 -45 c0 -25 -4 -45 -9
-45 -4 0 -41 13 -81 30 -40 16 -77 30 -81 30 -5 0 -9 -13 -9 -30 l0 -30 -170
0 -170 0 0 -520 0 -520 -115 0 -115 0 0 45 0 45 -50 0 -50 0 0 55 0 55 -565 0
-565 0 0 -55 0 -55 -50 0 -50 0 0 -45 c0 -25 -4 -45 -9 -45 -4 0 -41 13 -81
30 -40 16 -77 30 -81 30 -5 0 -9 -13 -9 -30 l0 -30 -165 0 -165 0 0 45 0 45
-50 0 -50 0 0 55 0 55 -285 0 -285 0 0 -55 0 -55 -50 0 -50 0 0 -45 c0 -25 -4
-45 -9 -45 -4 0 -41 13 -81 30 -40 16 -77 30 -81 30 -5 0 -9 -13 -9 -30 l0
-30 -125 0 -125 0 0 45 0 45 -50 0 -50 0 0 215 0 215 -565 0 -565 0 0 -215 0
-215 -50 0 c-49 0 -50 -1 -50 -30 l0 -30 -270 0 -270 0 0 65 c0 36 -3 65 -6
65 -3 0 -67 -36 -143 -80 -76 -44 -143 -80 -150 -80 -6 0 -11 -4 -11 -10 0 -5
4 -10 9 -10 5 0 75 -38 155 -84 l145 -84 3 62 3 61 268 3 c262 2 267 2 267
-18 0 -17 7 -20 50 -20 l50 0 0 -215 0 -215 565 0 565 0 0 215 0 215 50 0 50
0 0 45 0 45 125 0 125 0 0 -25 c0 -31 0 -31 90 0 40 14 77 25 82 25 4 0 8 -20
8 -45 l0 -45 50 0 50 0 0 -53 0 -54 362 -6 c199 -4 806 -7 1350 -7 l988 0 0
-25 c0 -14 3 -25 6 -25 10 0 134 75 134 82 0 3 -31 24 -69 46 l-70 40 -3 -31
-3 -32 -142 -3 -143 -3 0 36 0 35 50 0 50 0 0 45 0 45 120 0 120 0 0 520 0
520 165 0 165 0 0 -25 c0 -31 0 -31 90 0 40 14 77 25 82 25 4 0 8 -20 8 -45
l0 -45 50 0 50 0 0 -95 0 -95 645 0 645 0 0 445 0 445 -645 0 -645 0 0 -95 0
-95 -50 0 -50 0 0 -45 c0 -25 -4 -45 -9 -45 -4 0 -41 13 -81 30 -40 17 -77 30
-81 30 -5 0 -9 -13 -9 -30 l0 -30 -145 0 -145 0 0 -40 0 -40 -140 0 -140 0 0
45 0 45 -50 0 -50 0 0 55 0 55 -565 0 -565 0 0 -55 0 -55 -50 0 -50 0 0 -45
c0 -25 -4 -45 -9 -45 -4 0 -41 14 -81 30 -40 17 -77 30 -81 30 -5 0 -9 -13 -9
-30 l0 -30 -165 0 -165 0 0 45 0 45 -50 0 -50 0 0 55 0 55 -285 0 -285 0 0
-55 0 -55 -50 0 -50 0 0 -45 c0 -25 -4 -45 -9 -45 -4 0 -41 14 -81 30 -40 17
-77 30 -81 30 -5 0 -9 -13 -9 -30 l0 -30 -125 0 -125 0 0 45 0 45 -50 0 -50 0
0 215 0 215 -565 0 -565 0 0 -215z m1120 -310 l0 -515 -555 0 -555 0 0 515 0
515 555 0 555 0 0 -515z m5280 -80 l0 -435 -635 0 -635 0 0 435 0 435 635 0
635 0 0 -435z m-4080 80 l0 -195 -275 0 -275 0 0 195 0 195 275 0 275 0 0
-195z m1840 0 l0 -195 -555 0 -555 0 0 195 0 195 555 0 555 0 0 -195z m960 80
l0 -85 -45 0 -45 0 0 85 0 85 45 0 45 0 0 -85z m-5120 -80 l0 -85 -45 0 -45 0
0 85 0 85 45 0 45 0 0 -85z m1220 0 l0 -85 -45 0 -45 0 0 85 0 85 45 0 45 0 0
-85z m1820 0 l0 -85 -45 0 -45 0 0 85 0 85 45 0 45 0 0 -85z m1220 0 l0 -85
-45 0 -45 0 0 85 0 85 45 0 45 0 0 -85z m860 -240 l0 -85 -45 0 -45 0 0 85 0
85 45 0 45 0 0 -85z m-4000 -1040 l0 -515 -555 0 -555 0 0 515 0 515 555 0
555 0 0 -515z m1200 15 l0 -180 -40 0 c-29 0 -40 -4 -40 -15 0 -13 -33 -15
-235 -15 l-235 0 0 195 0 195 275 0 275 0 0 -180z m1840 0 l0 -180 -555 0
-555 0 0 180 0 180 555 0 555 0 0 -180z m-4160 -15 l0 -85 -45 0 -45 0 0 85 0
85 45 0 45 0 0 -85z m1220 0 l0 -85 -45 0 -45 0 0 85 0 85 45 0 45 0 0 -85z
m1820 0 l0 -85 -45 0 -45 0 0 85 0 85 45 0 45 0 0 -85z m1220 0 l0 -85 -45 0
-45 0 0 85 0 85 45 0 45 0 0 -85z m-1500 -30 c0 -14 4 -25 8 -25 5 0 42 11 82
25 40 14 77 25 82 25 4 0 8 -20 8 -45 l0 -45 50 0 50 0 0 -35 0 -35 -355 0
-355 0 0 35 0 35 50 0 50 0 0 45 0 45 165 0 165 0 0 -25z"/>
<path d="M80 2005 l0 -285 445 0 445 0 0 285 0 285 -445 0 -445 0 0 -285z
m880 0 l0 -275 -435 0 -435 0 0 275 0 275 435 0 435 0 0 -275z"/>
</g>
</svg>
