<?xml version="1.0" standalone="no"?>
<!DOCTYPE svg PUBLIC "-//W3C//DTD SVG 20010904//EN"
 "http://www.w3.org/TR/2001/REC-SVG-20010904/DTD/svg10.dtd">
<svg version="1.0" xmlns="http://www.w3.org/2000/svg"
 width="1292.000000pt" height="611.000000pt" viewBox="0 0 1292.000000 611.000000"
 preserveAspectRatio="xMidYMid meet">
<metadata>
Created by potrace 1.16, written by Peter Selinger 2001-2019
</metadata>
<g transform="translate(0.000000,611.000000) scale(0.100000,-0.100000)"
fill="#000000" stroke="none">
<path d="M0 6095 c0 -13 724 -15 6460 -15 5736 0 6460 2 6460 15 0 13 -724 15
-6460 15 -5736 0 -6460 -2 -6460 -15z"/>
<path d="M9040 5446 c0 -29 -3 -33 -20 -29 -53 14 -100 -35 -86 -91 10 -42 32
-55 86 -53 l50 2 0 103 c0 84 -3 102 -15 102 -10 0 -15 -10 -15 -34z"/>
<path d="M9870 5446 c0 -34 0 -34 -39 -29 -32 4 -41 2 -55 -18 -20 -30 -21
-78 0 -107 12 -18 23 -22 65 -20 l49 2 0 103 c0 62 -4 103 -10 103 -5 0 -10
-15 -10 -34z"/>
<path d="M11260 5377 l0 -103 47 -2 c61 -2 83 17 83 73 0 55 -26 80 -75 72
-34 -6 -35 -5 -35 29 0 19 -4 34 -10 34 -6 0 -10 -41 -10 -103z"/>
<path d="M8010 5370 l0 -100 51 0 c43 0 55 5 80 29 21 21 29 39 29 65 0 74
-34 106 -115 106 l-45 0 0 -100z m109 62 c23 -18 30 -59 17 -100 -8 -25 -42
-42 -82 -42 -23 0 -24 2 -24 80 l0 80 34 0 c19 0 44 -8 55 -18z"/>
<path d="M9126 5401 c-10 -11 -18 -36 -18 -56 0 -20 8 -45 18 -56 22 -24 75
-25 97 -1 23 26 22 94 -1 115 -25 23 -75 21 -96 -2z"/>
<path d="M6452 4633 l6458 -3 0 -2130 0 -2130 -6458 -3 -6457 -2 6463 -3 6462
-2 0 2140 0 2140 -6462 -2 -6463 -3 6457 -2z"/>
<path d="M10520 4455 l0 -95 125 0 125 0 0 95 0 95 -125 0 -125 0 0 -95z"/>
<path d="M502 2548 l3 -1733 5288 -3 5287 -2 -2 1192 -3 1193 -2 -1188 -3
-1187 -5280 0 -5280 0 0 1725 0 1725 5280 0 5280 0 3 -327 2 -328 3 333 2 332
-5290 0 -5290 0 2 -1732z"/>
<path d="M6180 3428 l0 -103 49 -2 c67 -3 86 13 86 72 0 56 -23 78 -72 73 -31
-4 -33 -2 -33 29 0 23 -5 33 -15 33 -12 0 -15 -18 -15 -102z"/>
<path d="M10730 3496 c0 -34 0 -34 -39 -29 -32 4 -41 2 -55 -18 -20 -30 -21
-78 0 -107 12 -18 23 -22 65 -20 l49 2 0 103 c0 62 -4 103 -10 103 -5 0 -10
-15 -10 -34z"/>
<path d="M4277 3513 c-4 -3 -7 -21 -7 -40 l0 -33 -405 0 -405 0 0 -31 c0 -26
-3 -30 -17 -24 -217 84 -396 -1 -635 -300 -84 -106 -169 -234 -353 -530 -195
-314 -242 -386 -341 -515 -231 -305 -437 -406 -636 -313 -199 93 -329 249
-687 827 -151 243 -271 426 -271 413 0 -4 26 -47 59 -95 32 -48 122 -190 201
-316 360 -581 496 -745 698 -839 160 -75 324 -24 501 154 130 131 227 268 486
684 238 384 333 518 460 654 105 112 223 182 332 196 118 16 258 -52 394 -192
131 -134 233 -279 479 -678 217 -351 328 -510 449 -638 167 -177 313 -241 462
-203 88 23 158 67 257 161 138 131 249 285 502 695 163 265 295 460 379 564
35 44 59 76 53 72 -45 -27 -240 -309 -442 -636 -251 -406 -365 -566 -497 -690
-320 -303 -577 -204 -960 370 -38 58 -125 195 -193 305 -249 404 -366 569
-498 699 -44 43 -104 94 -133 112 l-54 33 408 1 407 0 0 -34 c0 -19 4 -37 8
-40 7 -4 78 34 171 91 l23 15 -43 25 c-24 13 -67 38 -95 54 -28 16 -54 26 -57
22z"/>
<path d="M9370 3481 l0 -41 -405 0 -405 0 0 -30 0 -30 233 0 c127 -1 309 -2
402 -3 l170 -2 5 -37 5 -37 92 52 c51 29 93 54 93 57 0 5 -9 10 -123 74 l-67
38 0 -41z"/>
<path d="M6655 3409 c22 -6 59 -15 83 -21 60 -15 153 -77 235 -157 124 -119
237 -280 549 -781 196 -316 284 -436 418 -570 127 -128 193 -170 295 -190 243
-47 465 153 840 760 175 282 282 448 358 555 68 95 237 276 302 324 24 18 25
20 5 10 -44 -21 -243 -231 -317 -334 -79 -111 -166 -247 -365 -565 -73 -118
-165 -260 -205 -315 -282 -396 -497 -508 -738 -382 -82 43 -257 221 -362 367
-45 63 -144 216 -221 340 -305 490 -401 629 -526 759 -124 128 -230 191 -341
204 -49 6 -49 6 -10 -4z"/>
</g>
</svg>
